<mxfile host="app.diagrams.net" modified="2023-04-08T14:14:45.910Z" agent="Mozilla/5.0 (Windows NT 10.0; Win64; x64) AppleWebKit/537.36 (KHTML, like Gecko) Chrome/112.0.0.0 Safari/537.36 Edg/112.0.1722.34" etag="EwiVKqj1JcvIfYhMjcwP" version="21.1.5" type="google">
  <diagram name="Page-1" id="1OdHKfysgjdfIx1hNbUt">
    <mxGraphModel grid="0" page="0" gridSize="10" guides="1" tooltips="1" connect="1" arrows="1" fold="1" pageScale="1" pageWidth="850" pageHeight="1100" math="0" shadow="0">
      <root>
        <mxCell id="0" />
        <mxCell id="1" parent="0" />
        <mxCell id="p8bJE6q2pVDsBu26O2GT-39" value="" style="rounded=0;whiteSpace=wrap;html=1;fontSize=16;" vertex="1" parent="1">
          <mxGeometry x="225" y="-277" width="137" height="125" as="geometry" />
        </mxCell>
        <mxCell id="p8bJE6q2pVDsBu26O2GT-42" value="" style="rounded=0;whiteSpace=wrap;html=1;fontSize=16;" vertex="1" parent="1">
          <mxGeometry x="484" y="-281" width="137" height="125" as="geometry" />
        </mxCell>
        <mxCell id="p8bJE6q2pVDsBu26O2GT-36" value="" style="rounded=0;whiteSpace=wrap;html=1;fontSize=16;" vertex="1" parent="1">
          <mxGeometry x="-42" y="-465" width="137" height="125" as="geometry" />
        </mxCell>
        <mxCell id="p8bJE6q2pVDsBu26O2GT-1" value="" style="rounded=0;whiteSpace=wrap;html=1;fontSize=16;" vertex="1" parent="1">
          <mxGeometry x="79" y="-48" width="361" height="365" as="geometry" />
        </mxCell>
        <mxCell id="p8bJE6q2pVDsBu26O2GT-2" value="i,j" style="rounded=0;whiteSpace=wrap;html=1;fontSize=16;" vertex="1" parent="1">
          <mxGeometry x="220" y="69" width="95" height="79" as="geometry" />
        </mxCell>
        <mxCell id="p8bJE6q2pVDsBu26O2GT-3" value="m" style="text;html=1;align=center;verticalAlign=middle;resizable=0;points=[];autosize=1;strokeColor=none;fillColor=none;fontSize=16;" vertex="1" parent="1">
          <mxGeometry x="252" y="150" width="31" height="31" as="geometry" />
        </mxCell>
        <mxCell id="p8bJE6q2pVDsBu26O2GT-4" value="n" style="text;html=1;align=center;verticalAlign=middle;resizable=0;points=[];autosize=1;strokeColor=none;fillColor=none;fontSize=16;" vertex="1" parent="1">
          <mxGeometry x="189" y="94" width="27" height="31" as="geometry" />
        </mxCell>
        <mxCell id="p8bJE6q2pVDsBu26O2GT-6" value="" style="rounded=0;whiteSpace=wrap;html=1;fontSize=16;" vertex="1" parent="1">
          <mxGeometry x="484" y="-48" width="361" height="365" as="geometry" />
        </mxCell>
        <mxCell id="p8bJE6q2pVDsBu26O2GT-7" value="i-m,j-n" style="rounded=0;whiteSpace=wrap;html=1;fontSize=16;" vertex="1" parent="1">
          <mxGeometry x="586" y="46" width="95" height="79" as="geometry" />
        </mxCell>
        <mxCell id="p8bJE6q2pVDsBu26O2GT-8" value="m" style="text;html=1;align=center;verticalAlign=middle;resizable=0;points=[];autosize=1;strokeColor=none;fillColor=none;fontSize=16;" vertex="1" parent="1">
          <mxGeometry x="546" y="69" width="31" height="31" as="geometry" />
        </mxCell>
        <mxCell id="p8bJE6q2pVDsBu26O2GT-9" value="n" style="text;html=1;align=center;verticalAlign=middle;resizable=0;points=[];autosize=1;strokeColor=none;fillColor=none;fontSize=16;" vertex="1" parent="1">
          <mxGeometry x="681" y="31" width="27" height="31" as="geometry" />
        </mxCell>
        <mxCell id="p8bJE6q2pVDsBu26O2GT-12" style="edgeStyle=none;curved=1;rounded=0;orthogonalLoop=1;jettySize=auto;html=1;exitX=1;exitY=0.5;exitDx=0;exitDy=0;fontSize=12;startSize=8;endSize=8;" edge="1" parent="1" target="p8bJE6q2pVDsBu26O2GT-2">
          <mxGeometry relative="1" as="geometry">
            <mxPoint x="230.99999999999625" y="70.99999999999977" as="sourcePoint" />
          </mxGeometry>
        </mxCell>
        <mxCell id="p8bJE6q2pVDsBu26O2GT-13" value="i,j" style="rounded=0;whiteSpace=wrap;html=1;fontSize=16;" vertex="1" parent="1">
          <mxGeometry x="242.5" y="88" width="50" height="43" as="geometry" />
        </mxCell>
        <mxCell id="p8bJE6q2pVDsBu26O2GT-14" value="i,j" style="rounded=0;whiteSpace=wrap;html=1;fontSize=16;" vertex="1" parent="1">
          <mxGeometry x="258.5" y="97" width="24.5" height="25" as="geometry" />
        </mxCell>
        <mxCell id="p8bJE6q2pVDsBu26O2GT-15" value="" style="whiteSpace=wrap;html=1;fontSize=16;" vertex="1" parent="1">
          <mxGeometry x="78.5" y="402" width="378" height="60" as="geometry" />
        </mxCell>
        <mxCell id="p8bJE6q2pVDsBu26O2GT-16" value="t" style="text;html=1;align=center;verticalAlign=middle;resizable=0;points=[];autosize=1;strokeColor=none;fillColor=none;fontSize=16;" vertex="1" parent="1">
          <mxGeometry x="340" y="475" width="22" height="31" as="geometry" />
        </mxCell>
        <mxCell id="p8bJE6q2pVDsBu26O2GT-17" value="" style="rounded=0;whiteSpace=wrap;html=1;fontSize=16;" vertex="1" parent="1">
          <mxGeometry x="277.25" y="402" width="95.75" height="60" as="geometry" />
        </mxCell>
        <mxCell id="p8bJE6q2pVDsBu26O2GT-18" value="" style="rounded=0;whiteSpace=wrap;html=1;fontSize=16;fillColor=#dae8fc;strokeColor=#6c8ebf;" vertex="1" parent="1">
          <mxGeometry x="304" y="402" width="65" height="60" as="geometry" />
        </mxCell>
        <mxCell id="p8bJE6q2pVDsBu26O2GT-19" value="" style="rounded=0;whiteSpace=wrap;html=1;fontSize=16;fillColor=#0050ef;fontColor=#ffffff;strokeColor=#001DBC;" vertex="1" parent="1">
          <mxGeometry x="330" y="402" width="42" height="60" as="geometry" />
        </mxCell>
        <mxCell id="p8bJE6q2pVDsBu26O2GT-20" value="" style="whiteSpace=wrap;html=1;fontSize=16;" vertex="1" parent="1">
          <mxGeometry x="487" y="402" width="378" height="60" as="geometry" />
        </mxCell>
        <mxCell id="p8bJE6q2pVDsBu26O2GT-21" value="t" style="text;html=1;align=center;verticalAlign=middle;resizable=0;points=[];autosize=1;strokeColor=none;fillColor=none;fontSize=16;" vertex="1" parent="1">
          <mxGeometry x="748.5" y="475" width="22" height="31" as="geometry" />
        </mxCell>
        <mxCell id="p8bJE6q2pVDsBu26O2GT-22" value="" style="rounded=0;whiteSpace=wrap;html=1;fontSize=16;" vertex="1" parent="1">
          <mxGeometry x="574" y="402" width="192" height="60" as="geometry" />
        </mxCell>
        <mxCell id="p8bJE6q2pVDsBu26O2GT-23" value="" style="rounded=0;whiteSpace=wrap;html=1;fontSize=16;fillColor=#dae8fc;strokeColor=#6c8ebf;" vertex="1" parent="1">
          <mxGeometry x="716.5" y="402" width="86" height="60" as="geometry" />
        </mxCell>
        <mxCell id="p8bJE6q2pVDsBu26O2GT-24" value="" style="rounded=0;whiteSpace=wrap;html=1;fontSize=16;fillColor=#0050ef;fontColor=#ffffff;strokeColor=#001DBC;" vertex="1" parent="1">
          <mxGeometry x="738.5" y="402" width="42" height="60" as="geometry" />
        </mxCell>
        <mxCell id="p8bJE6q2pVDsBu26O2GT-25" value="a" style="text;html=1;align=center;verticalAlign=middle;resizable=0;points=[];autosize=1;strokeColor=none;fillColor=none;fontSize=16;" vertex="1" parent="1">
          <mxGeometry x="315" y="344" width="27" height="31" as="geometry" />
        </mxCell>
        <mxCell id="p8bJE6q2pVDsBu26O2GT-28" value="" style="edgeStyle=none;orthogonalLoop=1;jettySize=auto;html=1;endArrow=classic;startArrow=classic;endSize=8;startSize=8;rounded=0;fontSize=12;curved=1;" edge="1" parent="1">
          <mxGeometry width="140" relative="1" as="geometry">
            <mxPoint x="283" y="378" as="sourcePoint" />
            <mxPoint x="379" y="378" as="targetPoint" />
            <Array as="points" />
          </mxGeometry>
        </mxCell>
        <mxCell id="p8bJE6q2pVDsBu26O2GT-29" value="" style="edgeStyle=none;orthogonalLoop=1;jettySize=auto;html=1;endArrow=classic;startArrow=classic;endSize=8;startSize=8;rounded=0;fontSize=12;curved=1;" edge="1" parent="1">
          <mxGeometry width="140" relative="1" as="geometry">
            <mxPoint x="490" y="378" as="sourcePoint" />
            <mxPoint x="678" y="378.18" as="targetPoint" />
            <Array as="points" />
          </mxGeometry>
        </mxCell>
        <mxCell id="p8bJE6q2pVDsBu26O2GT-33" value="" style="endArrow=none;html=1;rounded=0;fontSize=12;startSize=8;endSize=8;curved=1;" edge="1" parent="1">
          <mxGeometry width="50" height="50" relative="1" as="geometry">
            <mxPoint x="-40" y="-462" as="sourcePoint" />
            <mxPoint x="93" y="-350" as="targetPoint" />
          </mxGeometry>
        </mxCell>
        <mxCell id="p8bJE6q2pVDsBu26O2GT-34" value="w" style="text;html=1;align=center;verticalAlign=middle;resizable=0;points=[];autosize=1;strokeColor=none;fillColor=none;fontSize=16;" vertex="1" parent="1">
          <mxGeometry x="-110" y="-422" width="30" height="31" as="geometry" />
        </mxCell>
        <mxCell id="p8bJE6q2pVDsBu26O2GT-35" value="input" style="text;html=1;align=center;verticalAlign=middle;resizable=0;points=[];autosize=1;strokeColor=none;fillColor=none;fontSize=16;" vertex="1" parent="1">
          <mxGeometry x="25.5" y="-329" width="53" height="31" as="geometry" />
        </mxCell>
        <mxCell id="p8bJE6q2pVDsBu26O2GT-37" value="t-a now we do a" style="text;html=1;align=center;verticalAlign=middle;resizable=0;points=[];autosize=1;strokeColor=none;fillColor=none;fontSize=16;" vertex="1" parent="1">
          <mxGeometry x="-32" y="-507" width="131" height="31" as="geometry" />
        </mxCell>
        <mxCell id="p8bJE6q2pVDsBu26O2GT-40" value="t = 10&lt;br&gt;a = 10&lt;br&gt;t-a = 0&lt;br&gt;w = 1&lt;br&gt;&lt;br&gt;t = 10&lt;br&gt;a = 10&lt;br&gt;w= 0.1" style="text;html=1;align=center;verticalAlign=middle;resizable=0;points=[];autosize=1;strokeColor=none;fillColor=none;fontSize=16;" vertex="1" parent="1">
          <mxGeometry x="766" y="-730" width="66" height="166" as="geometry" />
        </mxCell>
        <mxCell id="p8bJE6q2pVDsBu26O2GT-41" value="" style="endArrow=none;html=1;rounded=0;fontSize=12;startSize=8;endSize=8;curved=1;exitX=1;exitY=1;exitDx=0;exitDy=0;entryX=0;entryY=0;entryDx=0;entryDy=0;" edge="1" parent="1" source="p8bJE6q2pVDsBu26O2GT-42" target="p8bJE6q2pVDsBu26O2GT-42">
          <mxGeometry width="50" height="50" relative="1" as="geometry">
            <mxPoint x="534" y="-292" as="sourcePoint" />
            <mxPoint x="667" y="-180" as="targetPoint" />
          </mxGeometry>
        </mxCell>
        <mxCell id="p8bJE6q2pVDsBu26O2GT-43" value="t = 10&lt;br&gt;a = 5&lt;br&gt;t-a = 5&lt;br&gt;w = 0.5&lt;br&gt;&lt;br&gt;t = 10&lt;br&gt;a = 5&lt;br&gt;w= 0.5&lt;br&gt;" style="text;html=1;align=center;verticalAlign=middle;resizable=0;points=[];autosize=1;strokeColor=none;fillColor=none;fontSize=16;" vertex="1" parent="1">
          <mxGeometry x="884" y="-356" width="70" height="166" as="geometry" />
        </mxCell>
        <mxCell id="p8bJE6q2pVDsBu26O2GT-46" value="" style="endArrow=none;html=1;rounded=0;fontSize=12;startSize=8;endSize=8;curved=1;exitX=0;exitY=1;exitDx=0;exitDy=0;entryX=1;entryY=0;entryDx=0;entryDy=0;" edge="1" parent="1" source="p8bJE6q2pVDsBu26O2GT-39" target="p8bJE6q2pVDsBu26O2GT-39">
          <mxGeometry width="50" height="50" relative="1" as="geometry">
            <mxPoint x="182.75" y="-459" as="sourcePoint" />
            <mxPoint x="315.75" y="-347" as="targetPoint" />
          </mxGeometry>
        </mxCell>
        <mxCell id="p8bJE6q2pVDsBu26O2GT-48" value="a" style="text;html=1;align=center;verticalAlign=middle;resizable=0;points=[];autosize=1;strokeColor=none;fillColor=none;fontSize=16;" vertex="1" parent="1">
          <mxGeometry x="542" y="-141" width="27" height="31" as="geometry" />
        </mxCell>
        <mxCell id="p8bJE6q2pVDsBu26O2GT-51" value="w" style="text;html=1;align=center;verticalAlign=middle;resizable=0;points=[];autosize=1;strokeColor=none;fillColor=none;fontSize=16;" vertex="1" parent="1">
          <mxGeometry x="175" y="-230" width="30" height="31" as="geometry" />
        </mxCell>
        <mxCell id="p8bJE6q2pVDsBu26O2GT-52" value="w" style="text;html=1;align=center;verticalAlign=middle;resizable=0;points=[];autosize=1;strokeColor=none;fillColor=none;fontSize=16;" vertex="1" parent="1">
          <mxGeometry x="447" y="-236" width="30" height="31" as="geometry" />
        </mxCell>
        <mxCell id="p8bJE6q2pVDsBu26O2GT-53" value="" style="rounded=0;whiteSpace=wrap;html=1;fontSize=16;" vertex="1" parent="1">
          <mxGeometry x="223" y="-483" width="137" height="125" as="geometry" />
        </mxCell>
        <mxCell id="p8bJE6q2pVDsBu26O2GT-54" value="a" style="text;html=1;align=center;verticalAlign=middle;resizable=0;points=[];autosize=1;strokeColor=none;fillColor=none;fontSize=16;" vertex="1" parent="1">
          <mxGeometry x="277.25" y="-356" width="27" height="31" as="geometry" />
        </mxCell>
        <mxCell id="p8bJE6q2pVDsBu26O2GT-60" value="x" style="text;html=1;align=center;verticalAlign=middle;resizable=0;points=[];autosize=1;strokeColor=none;fillColor=none;fontSize=16;" vertex="1" parent="1">
          <mxGeometry x="166" y="-442" width="26" height="31" as="geometry" />
        </mxCell>
        <mxCell id="p8bJE6q2pVDsBu26O2GT-61" value="" style="ellipse;whiteSpace=wrap;html=1;fontSize=16;" vertex="1" parent="1">
          <mxGeometry x="236" y="-412" width="16" height="19" as="geometry" />
        </mxCell>
        <mxCell id="p8bJE6q2pVDsBu26O2GT-62" value="" style="ellipse;whiteSpace=wrap;html=1;fontSize=16;" vertex="1" parent="1">
          <mxGeometry x="281.25" y="-420" width="16" height="19" as="geometry" />
        </mxCell>
        <mxCell id="p8bJE6q2pVDsBu26O2GT-63" value="" style="ellipse;whiteSpace=wrap;html=1;fontSize=16;" vertex="1" parent="1">
          <mxGeometry x="328.5" y="-436" width="16" height="19" as="geometry" />
        </mxCell>
        <mxCell id="p8bJE6q2pVDsBu26O2GT-64" value="" style="ellipse;whiteSpace=wrap;html=1;fontSize=16;" vertex="1" parent="1">
          <mxGeometry x="304.25" y="-442" width="16" height="19" as="geometry" />
        </mxCell>
        <mxCell id="p8bJE6q2pVDsBu26O2GT-65" value="" style="ellipse;whiteSpace=wrap;html=1;fontSize=16;" vertex="1" parent="1">
          <mxGeometry x="255" y="-401" width="16" height="19" as="geometry" />
        </mxCell>
        <mxCell id="p8bJE6q2pVDsBu26O2GT-66" value="t" style="text;html=1;align=center;verticalAlign=middle;resizable=0;points=[];autosize=1;strokeColor=none;fillColor=none;fontSize=16;" vertex="1" parent="1">
          <mxGeometry x="345" y="-358" width="22" height="31" as="geometry" />
        </mxCell>
        <mxCell id="p8bJE6q2pVDsBu26O2GT-67" value="t" style="text;html=1;align=center;verticalAlign=middle;resizable=0;points=[];autosize=1;strokeColor=none;fillColor=none;fontSize=16;" vertex="1" parent="1">
          <mxGeometry x="608" y="-149" width="22" height="31" as="geometry" />
        </mxCell>
        <mxCell id="p8bJE6q2pVDsBu26O2GT-68" value="t" style="text;html=1;align=center;verticalAlign=middle;resizable=0;points=[];autosize=1;strokeColor=none;fillColor=none;fontSize=16;" vertex="1" parent="1">
          <mxGeometry x="350" y="-146" width="22" height="31" as="geometry" />
        </mxCell>
        <mxCell id="p8bJE6q2pVDsBu26O2GT-69" value="" style="rounded=0;whiteSpace=wrap;html=1;fontSize=16;" vertex="1" parent="1">
          <mxGeometry x="484" y="-483" width="137" height="125" as="geometry" />
        </mxCell>
        <mxCell id="p8bJE6q2pVDsBu26O2GT-71" value="0" style="text;html=1;align=center;verticalAlign=middle;resizable=0;points=[];autosize=1;strokeColor=none;fillColor=none;fontSize=16;" vertex="1" parent="1">
          <mxGeometry x="471" y="-355" width="27" height="31" as="geometry" />
        </mxCell>
        <mxCell id="p8bJE6q2pVDsBu26O2GT-82" value="a" style="text;html=1;align=center;verticalAlign=middle;resizable=0;points=[];autosize=1;strokeColor=none;fillColor=none;fontSize=16;" vertex="1" parent="1">
          <mxGeometry x="275" y="-154" width="27" height="31" as="geometry" />
        </mxCell>
        <mxCell id="p8bJE6q2pVDsBu26O2GT-83" value="t-a0" style="text;html=1;align=center;verticalAlign=middle;resizable=0;points=[];autosize=1;strokeColor=none;fillColor=none;fontSize=16;" vertex="1" parent="1">
          <mxGeometry x="595" y="-354" width="46" height="31" as="geometry" />
        </mxCell>
        <mxCell id="p8bJE6q2pVDsBu26O2GT-84" value="a0" style="text;html=1;align=center;verticalAlign=middle;resizable=0;points=[];autosize=1;strokeColor=none;fillColor=none;fontSize=16;" vertex="1" parent="1">
          <mxGeometry x="206.5" y="-358" width="36" height="31" as="geometry" />
        </mxCell>
        <mxCell id="p8bJE6q2pVDsBu26O2GT-85" value="" style="ellipse;whiteSpace=wrap;html=1;fontSize=16;flipH=1;" vertex="1" parent="1">
          <mxGeometry x="595" y="-411" width="16" height="19" as="geometry" />
        </mxCell>
        <mxCell id="p8bJE6q2pVDsBu26O2GT-86" value="" style="ellipse;whiteSpace=wrap;html=1;fontSize=16;flipH=1;" vertex="1" parent="1">
          <mxGeometry x="546" y="-423" width="16" height="19" as="geometry" />
        </mxCell>
        <mxCell id="p8bJE6q2pVDsBu26O2GT-87" value="" style="ellipse;whiteSpace=wrap;html=1;fontSize=16;flipH=1;" vertex="1" parent="1">
          <mxGeometry x="498" y="-451" width="16" height="19" as="geometry" />
        </mxCell>
        <mxCell id="p8bJE6q2pVDsBu26O2GT-88" value="" style="ellipse;whiteSpace=wrap;html=1;fontSize=16;flipH=1;" vertex="1" parent="1">
          <mxGeometry x="522" y="-442" width="16" height="19" as="geometry" />
        </mxCell>
        <mxCell id="p8bJE6q2pVDsBu26O2GT-89" value="" style="ellipse;whiteSpace=wrap;html=1;fontSize=16;flipH=1;" vertex="1" parent="1">
          <mxGeometry x="570" y="-404" width="16" height="19" as="geometry" />
        </mxCell>
        <mxCell id="p8bJE6q2pVDsBu26O2GT-122" value="" style="rounded=0;whiteSpace=wrap;html=1;fontSize=16;" vertex="1" parent="1">
          <mxGeometry x="716.5" y="-483" width="137" height="125" as="geometry" />
        </mxCell>
        <mxCell id="p8bJE6q2pVDsBu26O2GT-123" value="x" style="text;html=1;align=center;verticalAlign=middle;resizable=0;points=[];autosize=1;strokeColor=none;fillColor=none;fontSize=16;" vertex="1" parent="1">
          <mxGeometry x="669" y="-439" width="26" height="31" as="geometry" />
        </mxCell>
        <mxCell id="p8bJE6q2pVDsBu26O2GT-125" value="x" style="text;html=1;align=center;verticalAlign=middle;resizable=0;points=[];autosize=1;strokeColor=none;fillColor=none;fontSize=16;" vertex="1" parent="1">
          <mxGeometry x="434" y="-435" width="26" height="31" as="geometry" />
        </mxCell>
        <mxCell id="p8bJE6q2pVDsBu26O2GT-127" value="t+a0" style="text;html=1;align=center;verticalAlign=middle;resizable=0;points=[];autosize=1;strokeColor=none;fillColor=none;fontSize=16;" vertex="1" parent="1">
          <mxGeometry x="698.5" y="-356" width="50" height="31" as="geometry" />
        </mxCell>
        <mxCell id="p8bJE6q2pVDsBu26O2GT-128" value="" style="rounded=0;whiteSpace=wrap;html=1;fontSize=16;" vertex="1" parent="1">
          <mxGeometry x="712" y="-281" width="137" height="125" as="geometry" />
        </mxCell>
        <mxCell id="p8bJE6q2pVDsBu26O2GT-129" value="" style="endArrow=none;html=1;rounded=0;fontSize=12;startSize=8;endSize=8;curved=1;exitX=1;exitY=1;exitDx=0;exitDy=0;entryX=0;entryY=0;entryDx=0;entryDy=0;" edge="1" parent="1">
          <mxGeometry width="50" height="50" relative="1" as="geometry">
            <mxPoint x="851" y="-154" as="sourcePoint" />
            <mxPoint x="714" y="-279" as="targetPoint" />
          </mxGeometry>
        </mxCell>
        <mxCell id="p8bJE6q2pVDsBu26O2GT-130" value="a" style="text;html=1;align=center;verticalAlign=middle;resizable=0;points=[];autosize=1;strokeColor=none;fillColor=none;fontSize=16;" vertex="1" parent="1">
          <mxGeometry x="766" y="-146" width="27" height="31" as="geometry" />
        </mxCell>
        <mxCell id="p8bJE6q2pVDsBu26O2GT-131" value="w" style="text;html=1;align=center;verticalAlign=middle;resizable=0;points=[];autosize=1;strokeColor=none;fillColor=none;fontSize=16;" vertex="1" parent="1">
          <mxGeometry x="672" y="-230" width="30" height="31" as="geometry" />
        </mxCell>
        <mxCell id="p8bJE6q2pVDsBu26O2GT-132" value="t" style="text;html=1;align=center;verticalAlign=middle;resizable=0;points=[];autosize=1;strokeColor=none;fillColor=none;fontSize=16;" vertex="1" parent="1">
          <mxGeometry x="843" y="-146" width="22" height="31" as="geometry" />
        </mxCell>
        <mxCell id="p8bJE6q2pVDsBu26O2GT-133" value="2t" style="text;html=1;align=center;verticalAlign=middle;resizable=0;points=[];autosize=1;strokeColor=none;fillColor=none;fontSize=16;" vertex="1" parent="1">
          <mxGeometry x="832" y="-348" width="31" height="31" as="geometry" />
        </mxCell>
        <mxCell id="p8bJE6q2pVDsBu26O2GT-135" value="" style="ellipse;whiteSpace=wrap;html=1;fontSize=16;flipH=1;" vertex="1" parent="1">
          <mxGeometry x="729" y="-423" width="16" height="19" as="geometry" />
        </mxCell>
        <mxCell id="p8bJE6q2pVDsBu26O2GT-136" value="" style="ellipse;whiteSpace=wrap;html=1;fontSize=16;flipH=1;" vertex="1" parent="1">
          <mxGeometry x="754.5" y="-439" width="16" height="19" as="geometry" />
        </mxCell>
        <mxCell id="p8bJE6q2pVDsBu26O2GT-137" value="" style="ellipse;whiteSpace=wrap;html=1;fontSize=16;flipH=1;" vertex="1" parent="1">
          <mxGeometry x="772.5" y="-407" width="16" height="19" as="geometry" />
        </mxCell>
        <mxCell id="p8bJE6q2pVDsBu26O2GT-138" value="" style="ellipse;whiteSpace=wrap;html=1;fontSize=16;flipH=1;" vertex="1" parent="1">
          <mxGeometry x="800" y="-422" width="16" height="19" as="geometry" />
        </mxCell>
        <mxCell id="p8bJE6q2pVDsBu26O2GT-139" value="" style="ellipse;whiteSpace=wrap;html=1;fontSize=16;" vertex="1" parent="1">
          <mxGeometry x="821" y="-412" width="16" height="19" as="geometry" />
        </mxCell>
        <mxCell id="p8bJE6q2pVDsBu26O2GT-144" value="a" style="text;html=1;align=center;verticalAlign=middle;resizable=0;points=[];autosize=1;strokeColor=none;fillColor=none;fontSize=16;" vertex="1" parent="1">
          <mxGeometry x="535" y="-351" width="27" height="31" as="geometry" />
        </mxCell>
        <mxCell id="p8bJE6q2pVDsBu26O2GT-145" value="a" style="text;html=1;align=center;verticalAlign=middle;resizable=0;points=[];autosize=1;strokeColor=none;fillColor=none;fontSize=16;" vertex="1" parent="1">
          <mxGeometry x="772" y="-349" width="27" height="31" as="geometry" />
        </mxCell>
      </root>
    </mxGraphModel>
  </diagram>
</mxfile>
